<?xml version="1.0" encoding="utf-8"?>
<!-- Generator: Adobe Illustrator 23.1.1, SVG Export Plug-In . SVG Version: 6.00 Build 0)  -->
<svg version="1.1" id="Isolation_Mode" xmlns="http://www.w3.org/2000/svg" xmlns:xlink="http://www.w3.org/1999/xlink" x="0px"
	 y="0px" viewBox="0 0 152 45" style="enable-background:new 0 0 152 45;" xml:space="preserve">
<style type="text/css">
	.st0{fill:#B18C2D;}
	.st1{fill:#007044;}
	.st2{fill:#E66D2F;}
	.st3{fill:#B7252F;}
	.st4{fill:#FFFFFF;}
	.st5{fill:#CEB581;}
</style>
<rect x="2.9" y="22.8" class="st0" width="17.9" height="17.9"/>
<rect x="20.7" y="22.8" class="st1" width="17.9" height="17.9"/>
<rect x="2.9" y="4.9" class="st2" width="17.9" height="17.9"/>
<rect x="20.7" y="4.9" class="st3" width="17.9" height="17.9"/>
<g>
	<path class="st4" d="M18.6,29.3l-0.2,0L18.6,29.3C18.6,29.4,18.6,29.3,18.6,29.3"/>
	<polygon class="st4" points="18.3,29.4 18.2,29.4 18.2,29.4 	"/>
	<path class="st4" d="M17.9,29.5l0.2,0C18,29.4,18,29.4,17.9,29.5"/>
	<path class="st4" d="M18.2,29.5C18.2,29.5,18.2,29.4,18.2,29.5L18.2,29.5l-0.1,0L18.2,29.5z"/>
	<path class="st4" d="M18.2,29.5L18.2,29.5L18.2,29.5z"/>
	<path class="st4" d="M18.2,30c0,0,0-0.1-0.1-0.1c-0.2,0.1-0.3,0.1-0.5,0.2c-0.1,0-0.2-0.1-0.3-0.1c-0.2,0-0.6,0.2-0.4,0.2
		c0.4,0,0.7,0,1.1-0.1c0.3-0.1,0.6-0.2,0.9-0.4c0.1,0,0.2,0,0.2-0.1l-0.3,0C18.6,29.7,18.4,30,18.2,30"/>
	<path class="st4" d="M19.5,28.8c0,0,0.1,0,0.1,0c0,0,0,0.3,0,0l-0.2,0.2l0.1,0c0.1-0.1,0.1-0.1,0-0.1c0.3,0,0.1-0.2,0-0.3
		C19.5,28.8,19.5,28.8,19.5,28.8"/>
	<polygon class="st4" points="19.4,28.7 19.5,28.7 19.5,28.7 19.4,28.7 	"/>
	<path class="st4" d="M17.2,29.6c-0.5,0-0.9-0.1-1.4-0.2c0,0-0.1,0.1-0.1,0l-0.1-0.1l-0.2,0l-0.1,0h0c0,0,0,0,0,0.1l0.1,0.1
		l-0.1-0.1l-0.1-0.1l-0.2,0c0.1,0,0.1,0,0.2,0l0.1,0l0,0l-0.4-0.1l-0.1,0c-0.1,0-0.2,0-0.3-0.1l-0.1,0l0,0l0,0l-0.3-0.1l-0.2,0
		c0,0,0-0.1-0.1-0.1c0,0-0.1,0-0.1,0c0,0.1,0.1,0.1,0.1,0.2c0.1,0.1,0.2-0.1,0.3,0.1c0-0.2-0.2,0-0.3-0.1c0,0-0.1-0.1-0.1-0.2
		c-0.1,0-0.2-0.1-0.3-0.2c0.1,0,0.2,0.1,0.3,0.2c0.1,0,0.1,0,0.1,0c0,0,0.1,0.1,0.1,0.1l0.2,0l-0.6-0.2c-1.4-0.5-2.6-0.9-3.9-1.6
		c-0.7-0.4-1.3-1-1.4-1.5c-0.5-0.6,1.3-0.7,2.7,0c0.5,0.2,1.6,0.4,2.2,0.6c0.9-0.1,0.6-0.8,0.6-0.9c-0.3-0.7-0.7-0.5-1.6-1
		c0.6,0.3-0.5,0.2-1.1-0.3c-0.4-0.4-1-0.5-1.6-0.5c-0.6,0.1-1.5-0.1-2.4,1c-0.3,0.6-0.2,1.1,0,1.7c1.3,2.3,3.1,2.3,4.8,3.1
		c0.5,0.2,1,0.2,1.4,0.2c0.3,0,0.6,0.2,0.8,0.3c0.4,0.1,0.7,0.1,1,0.1c-0.4,0-0.6-0.1-1-0.1c-0.3-0.1,0.2-0.2,0.4-0.2
		c0.1,0,0.2,0.2,0.2,0.2c0.2,0,0.3,0,0.5,0c0.1,0,0,0.1,0.1,0.1c0.2,0,0.5-0.2,0.6-0.1L16,30l0.2,0l0.1,0c0-0.1,0-0.1,0-0.2
		c0.1,0,0.1,0.1,0.2,0.1c-0.1,0-0.1-0.1-0.2-0.1c0,0.1,0,0.1,0,0.2c0.3-0.1,0.7-0.1,1-0.2l0,0c-0.2,0-0.4,0-0.6-0.1
		c0.1,0,0.1,0.1,0,0.1l-0.1-0.1c0.2,0,0.3-0.1,0.5,0c0,0,0.1,0,0.1,0c0.1,0,0.1,0.1,0.1,0.1l0.1,0C17.4,29.8,17.2,29.6,17.2,29.6"/>
	<path class="st4" d="M15.2,29.4L15.2,29.4L15,29.3C15,29.4,15.1,29.4,15.2,29.4"/>
	<path class="st4" d="M18.6,36.2l-0.2,0.2l0.1-0.1C18.6,36.3,18.6,36.2,18.6,36.2"/>
	<polygon class="st4" points="18.3,36.6 18.3,36.6 18.3,36.7 	"/>
	<path class="st4" d="M18.1,37c0.1,0,0.1-0.1,0.1-0.2L18.1,37z"/>
	<path class="st4" d="M18.3,36.7C18.3,36.7,18.3,36.7,18.3,36.7L18.3,36.7l-0.1,0.1L18.3,36.7z"/>
	<path class="st4" d="M18.3,36.7C18.4,36.7,18.4,36.7,18.3,36.7L18.3,36.7z"/>
	<path class="st4" d="M18.7,37.2c0,0.1-0.1-0.1-0.2,0c-0.1,0.2-0.3,0.4-0.4,0.5c-0.1,0.1-0.3,0.1-0.3,0.2c-0.1,0.2-0.6,0.6-0.3,0.5
		c0.5-0.3,0.7-0.6,1.1-1c0.2-0.3,0.4-0.7,0.5-1.1c0-0.1,0.1-0.2,0.2-0.3c-0.1,0.1-0.2,0.2-0.3,0.3C18.8,36.6,18.9,36.9,18.7,37.2"/>
	<path class="st4" d="M19.4,34.4c0,0.1,0,0.2,0,0.2c-0.2,0.2-0.2,0.4-0.2,0.6l0.1-0.1c0-0.1,0-0.2-0.1-0.1c0.2-0.2,0.2-0.5,0.3-0.7
		C19.5,34.3,19.4,34.3,19.4,34.4"/>
	<polygon class="st4" points="19.5,34.2 19.5,34.3 19.5,34.3 19.6,34.2 	"/>
	<path class="st4" d="M17.4,37.7c-0.6,0.3-1.1,0.6-1.7,0.7c0,0-0.1,0.1-0.1,0.1l-0.1,0l-0.2,0.1l-0.1,0l0,0c0,0,0,0,0,0.1l0.1,0
		c0,0-0.1,0-0.1,0l-0.1,0l-0.2,0c0.1,0,0.2,0,0.2,0l0.1,0l0,0l-0.6,0l-0.1,0c-0.1,0-0.3,0.1-0.4,0l-0.1,0l0,0l0,0l-0.4,0l-0.3,0.1
		c0,0-0.1-0.1-0.1-0.1c0,0-0.1,0.1-0.2,0.1l0.2,0.1c0.1,0.1,0.2-0.2,0.3,0c-0.1-0.2-0.2,0.1-0.3,0l-0.2-0.1c-0.1,0-0.3,0-0.4-0.1
		c0.2,0,0.3,0,0.4,0.1c0.1,0,0.1,0,0.2-0.1c0,0,0.1,0.1,0.1,0.1l0.3-0.1c-0.3,0-0.6,0-0.9-0.1c-1.8-0.3-3.6-0.8-4.9-2.2
		c-0.7-0.7-1.1-1.6-1.3-2.6C6.2,32,6.1,30.1,7,28.4c0.3-0.7,0.7-1.9,1.1-2.5c0.2-1-0.6-0.9-0.7-0.9c-0.8,0.3-0.8,0.8-1.6,1.9
		c0.5-0.8,0.1,0.7-0.5,1.4c-0.9,1.1-0.7,3-0.5,4.6c0,0.4,0.1,0.8,0.3,1.3c0.5,2.6,2.9,4.3,5.3,5c0.7,0.2,1.3,0.2,1.8,0.1
		c0.4,0,0.8,0.1,1.2,0.1c0.5,0,1-0.1,1.4-0.2c-0.5,0.1-0.8,0.2-1.4,0.2c-0.4,0,0.3-0.2,0.5-0.2c0.1,0,0.3,0.1,0.4,0.1
		c0.2,0,0.4-0.1,0.6-0.2c0.1,0,0.1,0.1,0.2,0.1c0.3-0.1,0.5-0.4,0.7-0.4l0.4,0l0.3-0.1l0.1-0.1c-0.1,0-0.1-0.1-0.1-0.1
		c0.1,0,0.2,0,0.3-0.1c-0.1,0-0.2,0.1-0.3,0.1c0,0,0.1,0.1,0.1,0.1c0.3-0.3,0.8-0.5,1.1-0.9l0,0c-0.2,0.2-0.4,0.3-0.7,0.3
		c0.1,0,0.1,0,0,0.1l-0.1,0c0.2-0.2,0.4-0.3,0.6-0.3c0,0,0.1-0.1,0.1-0.1c0.1,0,0.1,0,0.1,0l0.1-0.1C17.7,37.6,17.4,37.7,17.4,37.7"
		/>
	<path class="st4" d="M15,38.6l0.1,0l-0.5,0C14.8,38.6,14.9,38.6,15,38.6"/>
	<path class="st4" d="M16,30l0.4,0L16.2,30C16.1,30,16.1,30,16,30"/>
	<polygon class="st4" points="16.7,30.1 16.8,30.1 16.9,30.1 	"/>
	<path class="st4" d="M17.4,30.1l-0.3,0C17.2,30.1,17.3,30.1,17.4,30.1"/>
	<path class="st4" d="M16.9,30C16.9,30.1,16.9,30.1,16.9,30L16.9,30l0.2,0L16.9,30z"/>
	<path class="st4" d="M16.9,30c0,0-0.1,0-0.1-0.1L16.9,30z"/>
	<path class="st4" d="M17.1,29.5c0.1,0,0,0.1,0.2,0.1c0.3,0,0.5-0.1,0.8-0.2c0.1-0.1,0.3,0.1,0.5,0c0.3-0.1,0.8-0.6,0.5-0.4
		c-0.5,0.2-1,0.3-1.5,0.4c-0.5,0.1-1,0.1-1.5,0.1c-0.1,0-0.3,0-0.4-0.1c0.2,0.1,0.3,0.1,0.5,0.1C16.3,29.7,16.6,29.5,17.1,29.5"/>
	<path class="st4" d="M13.2,29.4c0.1,0,0.2,0,0.2,0c0.3,0.2,0.6,0.2,0.9,0.2l-0.1-0.1c-0.2,0-0.2,0-0.1,0.1c-0.3-0.2-0.7-0.3-1-0.3
		C13.2,29.3,13.1,29.4,13.2,29.4"/>
	<polygon class="st4" points="12.9,29.2 13.1,29.3 13.1,29.3 12.9,29.2 	"/>
	<path class="st4" d="M18.8,29.7c0.9-0.2,1.5-1,1.8-1.7c0-0.1,0-0.1,0-0.2c0.1,0,0.1-0.1,0.1-0.2l0.1-0.3l0-0.1v0c0-0.1,0-0.1-0.1,0
		l-0.1,0.1c0,0,0.1-0.1,0.1-0.1l0.1-0.2c0-0.1,0-0.2,0-0.3c0,0.1,0,0.2,0,0.3l0,0.2v0.1c0.1-0.3,0.1-0.5,0.1-0.8l0-0.2
		c0-0.2,0-0.4,0.1-0.5l0-0.1l0,0l0-0.1l0.1-0.6l-0.1-0.4c0,0,0.1-0.1,0.1-0.1c0-0.1,0-0.1,0-0.2c-0.1,0.1-0.1,0.2-0.2,0.3
		c-0.1,0.1,0.1,0.3,0,0.5c0.2-0.1-0.1-0.3,0-0.5c0-0.1,0.1-0.2,0.2-0.3c0-0.2,0.1-0.4,0.2-0.6c0,0.3-0.1,0.4-0.2,0.6
		c0,0.1,0,0.2,0,0.2c0,0-0.1,0.1-0.1,0.1l0.1,0.4c0-0.4,0.1-0.8,0.2-1.2c0.5-2.6,1.9-4.6,3.9-6.5c1.1-1,2.3-1.8,3.5-2.5
		c1.2-0.6,2.4-1.2,3.5-1.6c0.6-0.2,1.3-0.2,2-0.5c0.6-0.2,0.9-0.6,1.1-1.2c0.3-0.6,0.1-1.4-0.3-1.8c-1.1-1.4-3.4-1.7-4.8-1.4
		c-1.8,0.9-0.3,1.2-0.4,1.2c0.9,0.3,1.5-0.1,3,0.7c-1.1-0.6,1.3,0,1.1,0.8c0.3,0.1-2.9,0.8-4.7,1.8c-0.5,0.2-1,0.5-1.5,0.9
		c-2.8,1.6-5,3.9-6.7,7c-0.4,0.9-0.5,1.7-0.6,2.5c-0.1,0.6-0.3,1.2-0.3,1.6c-0.1,0.7,0,1.4,0,1.8c0-0.5,0-1.1,0-1.8
		c0-0.5,0.2,0.4,0.2,0.7c0,0.1-0.2,0.3-0.1,0.5c0,0.3,0,0.5,0.1,0.8c0,0.1-0.1,0.1-0.1,0.1c-0.1,0.4,0.1,0.7-0.1,0.9
		c-0.1,0.2-0.2,0.3-0.3,0.4c0,0.1-0.1,0.1-0.2,0.2l-0.1,0.2c0.1,0,0.1,0,0.2,0c-0.1,0.1-0.2,0.2-0.3,0.2c0.1-0.1,0.2-0.2,0.3-0.2
		c-0.1,0-0.1,0-0.2,0c-0.2,0.5-0.7,0.8-1.3,1l0,0c0.3-0.1,0.6-0.2,1-0.2c-0.2,0-0.2,0,0-0.1l0.2,0c-0.2,0.2-0.5,0.4-0.8,0.3
		c0,0-0.1,0.1-0.2,0.1c-0.1,0-0.1,0-0.1-0.1l-0.2,0C18.3,29.7,18.8,29.7,18.8,29.7"/>
	<path class="st4" d="M20.9,26.9l0,0.2c0.1-0.2,0.1-0.5,0.1-0.7C20.9,26.6,20.9,26.7,20.9,26.9"/>
	<path class="st4" d="M17.6,27.3L17.6,27.3L17.6,27.3C17.6,27.3,17.6,27.3,17.6,27.3"/>
	<polygon class="st4" points="17.5,27.2 17.5,27.2 17.5,27.2 	"/>
	<path class="st4" d="M17.4,27.2L17.4,27.2L17.4,27.2z"/>
	<polygon class="st4" points="17.5,27.2 17.5,27.2 17.5,27.2 17.5,27.2 	"/>
	<path class="st4" d="M17.5,27.2L17.5,27.2L17.5,27.2z"/>
	<path class="st4" d="M17.3,27.5C17.3,27.5,17.3,27.4,17.3,27.5c-0.1-0.1-0.1-0.1-0.2-0.1c0,0,0-0.1,0-0.1c-0.1,0-0.2,0-0.2,0.1
		C17.1,27.5,17.1,27.5,17.3,27.5l0.2,0l0.1,0l-0.1-0.1C17.5,27.4,17.4,27.5,17.3,27.5"/>
	<path class="st4" d="M18,27.5C18,27.6,18,27.6,18,27.5c-0.1-0.1-0.1-0.1-0.2-0.1l0,0.1c0,0,0,0,0,0C17.9,27.6,17.9,27.6,18,27.5
		C18,27.6,18,27.6,18,27.5"/>
	<polygon class="st4" points="18,27.6 18,27.6 18,27.6 18,27.6 	"/>
	<path class="st4" d="M17.2,27.1l-0.4-0.2c0,0,0,0,0,0l0,0l0,0l0,0l0,0l0,0l0,0l0,0l-0.1,0l0.1,0l0,0l0,0l-0.1-0.1l0,0
		c0,0-0.1,0-0.1-0.1l0,0v0l0,0l-0.1-0.1l-0.1,0c0,0,0,0,0-0.1l-0.1,0l0,0.1c0,0.1,0.1-0.1,0.1,0c0-0.1-0.1,0-0.1,0l0-0.1
		c0,0-0.1,0-0.1-0.1c0.1,0,0.1,0,0.1,0.1l0.1,0c0,0,0,0.1,0,0.1l0.1,0l-0.2-0.1c-0.4-0.2-0.7-0.4-1.1-0.6l-0.6-0.4
		c-0.4-0.3-0.9-0.2-1.3-0.6c-0.2-0.1-0.6-0.1-0.8-0.1c-0.3,0.1-0.1,0.5-0.1,0.6c0.1,0.4,0.2,0.2,0.5,0.4c-0.2-0.1,0.2-0.2,0.3,0.1
		c0.2,0.4,0.6,0.2,0.9,0.4c0.1,0,0.2,0.1,0.2,0.1c0.4,0.3,0.9,0.3,1.4,0.6c0.1,0.1,0.3,0,0.4,0c0.1,0,0.1,0.1,0.2,0.1
		c0.1,0,0.2,0.1,0.3,0.1c-0.1,0-0.2,0-0.3-0.1c-0.1,0,0.1-0.1,0.2-0.1c0,0,0,0.1,0,0.1c0,0,0.1,0,0.2,0c0,0,0,0.1,0,0.1
		c0.1,0,0.2-0.1,0.2,0l0.1,0.1l0,0l0,0l0-0.1l0,0.1l0-0.1l0,0.1l0.3,0l0,0c-0.1,0-0.1-0.1-0.1-0.1c0,0,0,0.1,0,0l0-0.1
		C17.1,27.1,17.1,27.1,17.2,27.1C17.2,27.2,17.2,27.2,17.2,27.1c0,0.1,0,0.1,0,0.1l0,0C17.2,27.2,17.2,27.1,17.2,27.1"/>
	<path class="st4" d="M16.7,26.9L16.7,26.9L16.7,26.9C16.6,26.8,16.6,26.8,16.7,26.9"/>
	<path class="st0" d="M59.8,23.4c-1.2,0.4-2.6,0.9-4.8,0.9c-1.4,0-2.8-0.1-4.3-0.7c-3.5-1.4-5.8-5.1-5.8-9c0-3.1,1-5.7,2.9-7.6
		c2-2,4.1-2.5,6.9-2.5c1.6,0,3.3,0.7,4.2,0.7c0.2,0,0.4-0.1,0.5-0.2H60v4.7h-0.4C58.3,8.5,56.9,8,54.9,8c-3.2,0-5.6,2.5-5.6,6.5
		c0,3.5,2.1,6.3,5.9,6.3c1.5,0,3.3-0.6,4.6-2l0.4,0.1L59.8,23.4z"/>
	<path class="st0" d="M77.8,9.7v5.7c0,2.6,0,4.4-1.4,6.2c-1.3,1.7-3.6,2.7-6.4,2.7c-5.1,0-7.7-2.8-7.7-7.2V9.7
		c0-2.6-0.1-4.1-1.4-4.3V4.9C62.1,5,63.3,5,64.4,5c1,0,2.2-0.1,3.5-0.1v0.5c-1.3,0.2-1.4,1.7-1.4,4.3v5.9c0,3.1,0.4,5.2,3.6,5.2
		c1.3,0,2.5-0.6,3-1.6c0.5-1,0.5-2.2,0.5-4V9.7c0-2.6-0.1-4.1-1.4-4.3V4.9c1.3,0,2.5,0.1,3.5,0.1c1.1,0,2.3,0,3.5-0.1v0.5
		C77.9,5.6,77.8,7.2,77.8,9.7"/>
	<path class="st0" d="M84.2,24.3c-1.7,0-3.2-0.4-4.8-1L79,19l0.4-0.1c1,1.4,2.5,2,4.5,2c1.7,0,3-0.9,3-2.3c0-0.7-0.3-1.4-0.8-1.7
		c-1.3-0.9-3-1.9-4.9-2.9c-1.1-0.6-2-2.4-2-4c0-3.4,2.4-5.5,5.7-5.5c2.2,0,3.5,0.6,4.1,0.6c0.3,0,0.5-0.1,0.6-0.2h0.5v4.7h-0.5
		c-0.9-1.3-2.4-2-3.9-2c-1.9,0-2.4,1.1-2.4,1.9c0,2.8,7.7,2.7,7.7,8.6C91,22.1,88.3,24.3,84.2,24.3"/>
	<path class="st0" d="M104.8,9.6c-0.4-1-1.3-1.3-3.2-1.3h-1.2v10.7c0,2.6,0.1,4,1.5,4.3v0.5c-1.1,0-2.3-0.1-3.6-0.1
		c-1.2,0-2.4,0-3.5,0.1v-0.5c1.3-0.3,1.4-1.8,1.4-4.3V8.4h-1.1c-1.9,0-2.8,0.3-3.2,1.3h-0.4L91.8,5h13l0.4,4.7H104.8z"/>
	<path class="st0" d="M115.2,24.3c-5.7,0-9.9-4.2-9.9-9.9c0-5.7,3.7-10,9.8-10c1.7,0,3.2,0.2,4.7,1c3.2,1.6,5.2,5,5.2,9
		C125,19.6,121.4,24.3,115.2,24.3 M115.1,8c-2.9,0-5.5,2.5-5.5,6.5c0,3.8,2.5,6.3,5.5,6.3c3,0,5.6-2.5,5.6-6.4
		C120.7,10.4,118.2,8,115.1,8"/>
	<path class="st0" d="M144.7,23.8c-0.9,0-1.9,0-2.7,0.1v-0.4c0.5-0.2,0.7-0.6,0.7-1.1c0-0.1-0.1-0.6-0.2-1.1l-1.7-7.4l-4.9,10.6
		h-0.6l-4.8-10.6l-1.9,7.7c-0.1,0.3-0.2,0.7-0.2,1c0,0.5,0.2,0.8,0.6,0.9v0.4c-1,0-2-0.1-2.9-0.1c-0.8,0-1.7,0-2.5,0.1v-0.4
		c0.7-0.2,0.9-0.9,1.3-2.2l4.6-16.3h0.6l5.7,12.4l5.8-12.4h0.5l4.8,16.7c0.3,1.1,0.8,1.6,1.3,1.9v0.4
		C146.9,23.8,145.7,23.8,144.7,23.8"/>
	<path class="st5" d="M58,40.3c-1.4,0.5-2.8,0.7-4.2,0.7c-5.4,0-8.4-3.7-8.4-7.8c0-3.1,1.4-5.6,3.8-7c1.5-0.9,2.9-1,4.5-1
		c1.6,0,3,0.6,3.7,0.6c0.2,0,0.4-0.1,0.5-0.2h0.3v3.3h-0.3c-1.1-0.9-2.4-1.4-4.1-1.4c-3.1,0-5.3,2.3-5.3,5.7c0,3.1,2,5.6,5.4,5.6
		c1.5,0,3.1-0.5,4.2-1.5l0.3,0.1L58,40.3z"/>
	<path class="st5" d="M72.9,29.1v5.2c0,1.5-0.1,2.7-0.5,3.6c-0.9,2-3,3.2-5.9,3.2c-2.7,0-4.7-1-5.7-2.7c-0.6-1-0.7-2-0.7-3.1v-6.1
		c0-2-0.2-3.1-1.2-3.3v-0.3c0.9,0,1.8,0,2.7,0c0.9,0,1.8,0,2.7,0v0.3c-1,0.2-1.2,1.2-1.2,3.3v5.2c0,1.9,0.1,3.1,1.2,3.8
		c0.6,0.4,1.3,0.6,2.2,0.6c1.6,0,2.8-0.8,3.2-2.1c0.2-0.5,0.2-1.4,0.2-2.4v-5.1c0-2.1-0.2-3.1-1.2-3.3v-0.3c0.9,0,1.8,0,2.7,0
		c0.9,0,1.8,0,2.7,0v0.3C73.1,26,72.9,27,72.9,29.1"/>
	<path class="st5" d="M84.4,40.7h-9.6v-0.3c1.1-0.2,1.2-1.3,1.2-3.3v-8c0-2-0.1-3.1-1.2-3.3v-0.3c0.9,0,1.9,0,2.7,0
		c0.8,0,1.7,0,2.7,0v0.3C79.2,26,79,27,79,29.1V36c0,2-0.1,2.4,1.7,2.4h1.1c1.5,0,2.2-0.4,2.6-1.2l0.3,0L84.4,40.7z"/>
	<path class="st5" d="M88.2,40.6c-1,0-1.9,0-2.7,0v-0.3c1.1-0.2,1.2-1.2,1.2-3.3v-8c0-2-0.1-3.1-1.2-3.3v-0.3c0.9,0,1.9,0,2.7,0
		c0.8,0,1.8,0,2.7,0v0.3c-1,0.2-1.2,1.2-1.2,3.3v8c0,2.1,0.2,3.1,1.2,3.3v0.3C90,40.6,89.1,40.6,88.2,40.6"/>
	<path class="st5" d="M105.8,29.1v12.2h-0.4L95.2,30.9v6.2c0,2,0.1,3.1,1.2,3.3v0.3c-0.8,0-1.7,0-2.6,0c-0.8,0-1.7,0-2.5,0v-0.3
		c1.1-0.2,1.2-1.3,1.2-3.3V24.8h0.3L103,35.2v-6.1c0-2-0.1-3.2-1.2-3.3v-0.3c0.9,0,1.8,0,2.6,0c0.7,0,1.6,0,2.5,0v0.3
		C105.8,26,105.8,27.2,105.8,29.1"/>
	<path class="st5" d="M120.5,40.6c-0.9,0-1.9,0-2.8,0v-0.3c0.4-0.1,0.6-0.3,0.6-0.7c0-0.2-0.1-0.5-0.2-0.8l-0.7-1.7h-5.9l-0.8,1.8
		c-0.1,0.2-0.2,0.5-0.2,0.8c0,0.4,0.2,0.5,0.6,0.6v0.3c-0.9,0-1.8,0-2.7,0c-0.6,0-1.3,0-1.9,0v-0.3c0.7-0.3,0.9-0.8,1.3-1.7
		l6.6-13.9h0.4l6.6,14.1c0.4,0.7,0.7,1.3,1.3,1.5v0.3C122,40.6,121.2,40.6,120.5,40.6 M114.4,30.1l-2.1,4.8h4.1L114.4,30.1z"/>
	<path class="st5" d="M134.6,40.8c-1.5,0-2-0.3-3-1.7l-4.1-6.4l0.1-0.2c0.3,0,0.6,0.1,0.8,0.1c1.9,0,3.1-1,3.1-2.6
		c0-1.1-0.9-2.4-3.3-2.4c-0.5,0-1,0-1.5,0.1v9.3c0,2.1,0.2,3.1,1.2,3.3v0.3c-0.9,0-1.8,0-2.7,0c-0.9,0-1.8,0-2.7,0v-0.3
		c1.1-0.2,1.2-1.2,1.2-3.3v-8c0-2-0.1-3.1-1.2-3.3v-0.3h5.8c1.5,0,2.9,0.1,4.1,0.7c1.4,0.7,2.2,2,2.2,3.6c0,1.9-1,3.3-3,3.9l3.5,5.3
		c0.5,0.8,0.8,1.2,1.4,1.3v0.3C135.9,40.8,135.2,40.8,134.6,40.8"/>
	<path class="st5" d="M146.7,27.5l-3.9,6.5v3.1c0,2.1,0.1,3.1,1.2,3.3v0.3c-0.8,0-1.8,0-2.7,0c-0.9,0-1.8,0-2.7,0v-0.3
		c1.1-0.2,1.2-1.2,1.2-3.3V34l-3.8-6.3c-0.7-1.1-1.2-1.6-1.8-1.9v-0.3c0.7,0,1.5,0,2.2,0c0.9,0,1.9,0,2.8,0v0.3
		c-0.3,0-0.5,0.2-0.5,0.4c0,0.2,0.1,0.4,0.2,0.5l2.5,4.6l2.5-4.5c0.1-0.1,0.2-0.4,0.2-0.6c0-0.3-0.3-0.3-0.5-0.4v-0.3
		c0.8,0,1.8,0,2.6,0c0.7,0,1.4,0,2.1,0v0.3C147.7,26,147.3,26.5,146.7,27.5"/>
	<path class="st0" d="M143.3,6.4c0-0.8,0.6-1.4,1.4-1.4c0.8,0,1.4,0.6,1.4,1.4c0,0.8-0.6,1.4-1.4,1.4C143.9,7.8,143.3,7.1,143.3,6.4
		 M145.8,6.4c0-0.6-0.4-1.1-1.1-1.1c-0.6,0-1.1,0.5-1.1,1.1c0,0.6,0.4,1.1,1.1,1.1C145.4,7.5,145.8,7,145.8,6.4 M145.5,7.1h-0.4
		l-0.3-0.7h-0.3v0.7h-0.3V5.6h0.8c0.4,0,0.6,0.1,0.6,0.5c0,0.3-0.2,0.4-0.4,0.4L145.5,7.1z M144.9,6.2c0.2,0,0.3,0,0.3-0.2
		c0-0.2-0.2-0.2-0.4-0.2h-0.4v0.4H144.9z"/>
	<path class="st1" d="M149.7,52.9c0-0.8,0.6-1.4,1.4-1.4c0.8,0,1.4,0.6,1.4,1.4s-0.6,1.4-1.4,1.4C150.3,54.4,149.7,53.7,149.7,52.9
		 M152.2,52.9c0-0.6-0.4-1.1-1.1-1.1c-0.6,0-1.1,0.5-1.1,1.1c0,0.6,0.4,1.1,1.1,1.1C151.8,54,152.2,53.6,152.2,52.9 M151.9,53.7
		h-0.4l-0.3-0.7h-0.3v0.7h-0.3v-1.6h0.8c0.4,0,0.6,0.1,0.6,0.5c0,0.3-0.2,0.4-0.4,0.4L151.9,53.7z M151.3,52.8c0.2,0,0.3,0,0.3-0.2
		c0-0.2-0.2-0.2-0.4-0.2h-0.4v0.4H151.3z"/>
</g>
</svg>
